<?xml version="1.0" encoding="UTF-8" standalone="no"?>
<svg
   xmlns:dc="http://purl.org/dc/elements/1.1/"
   xmlns:cc="http://creativecommons.org/ns#"
   xmlns:rdf="http://www.w3.org/1999/02/22-rdf-syntax-ns#"
   xmlns:svg="http://www.w3.org/2000/svg"
   xmlns="http://www.w3.org/2000/svg"
   xmlns:sodipodi="http://sodipodi.sourceforge.net/DTD/sodipodi-0.dtd"
   xmlns:inkscape="http://www.inkscape.org/namespaces/inkscape"
   inkscape:version="1.0 (4035a4fb49, 2020-05-01)"
   sodipodi:docname="linkedin.svg"
   xml:space="preserve"
   style="enable-background:new 0 0 430.117 430.118;"
   viewBox="0 0 430.117 430.118"
   height="430.118px"
   width="430.117px"
   y="0px"
   x="0px"
   id="Capa_1"
   version="1.1"><metadata
   id="metadata1624"><rdf:RDF><cc:Work
       rdf:about=""><dc:format>image/svg+xml</dc:format><dc:type
         rdf:resource="http://purl.org/dc/dcmitype/StillImage" /></cc:Work></rdf:RDF></metadata><defs
   id="defs1622" /><sodipodi:namedview
   inkscape:current-layer="Capa_1"
   inkscape:window-maximized="1"
   inkscape:window-y="-8"
   inkscape:window-x="-8"
   inkscape:cy="185.20759"
   inkscape:cx="457.17601"
   inkscape:zoom="1.2083276"
   showgrid="false"
   id="namedview1620"
   inkscape:window-height="1137"
   inkscape:window-width="1920"
   inkscape:pageshadow="2"
   inkscape:pageopacity="0"
   guidetolerance="10"
   gridtolerance="10"
   objecttolerance="10"
   borderopacity="1"
   bordercolor="#666666"
   pagecolor="#ffffff" />
<g
   id="g1587">
	<path
   d="M398.355,0H31.782C14.229,0,0.002,13.793,0.002,30.817v368.471   c0,17.025,14.232,30.83,31.78,30.83h366.573c17.549,0,31.76-13.814,31.76-30.83V30.817C430.115,13.798,415.904,0,398.355,0z    M130.4,360.038H65.413V165.845H130.4V360.038z M97.913,139.315h-0.437c-21.793,0-35.92-14.904-35.92-33.563   c0-19.035,14.542-33.535,36.767-33.535c22.227,0,35.899,14.496,36.331,33.535C134.654,124.415,120.555,139.315,97.913,139.315z    M364.659,360.038h-64.966V256.138c0-26.107-9.413-43.921-32.907-43.921c-17.973,0-28.642,12.018-33.327,23.621   c-1.736,4.144-2.166,9.94-2.166,15.728v108.468h-64.954c0,0,0.85-175.979,0-194.192h64.964v27.531   c8.624-13.229,24.035-32.1,58.534-32.1c42.76,0,74.822,27.739,74.822,87.414V360.038z M230.883,193.99   c0.111-0.182,0.266-0.401,0.42-0.614v0.614H230.883z"
   id="LinkedIn__x28_alt_x29_" />
</g>
<g
   id="g1589">
</g>
<g
   id="g1591">
</g>
<g
   id="g1593">
</g>
<g
   id="g1595">
</g>
<g
   id="g1597">
</g>
<g
   id="g1599">
</g>
<g
   id="g1601">
</g>
<g
   id="g1603">
</g>
<g
   id="g1605">
</g>
<g
   id="g1607">
</g>
<g
   id="g1609">
</g>
<g
   id="g1611">
</g>
<g
   id="g1613">
</g>
<g
   id="g1615">
</g>
<g
   id="g1617">
</g>
<path
   id="path1626"
   d="M 28.381433,429.55548 C 15.831531,428.08533 5.3218347,419.47797 1.5885696,407.61232 L 0.29209375,403.49166 V 215.05901 26.626353 L 1.5885696,22.505691 C 3.8021335,15.470196 8.796311,9.0258135 15.136953,5.0231422 16.455135,4.1910106 19.579392,2.7862206 22.079748,1.9013865 L 26.62585,0.29259729 H 215.0585 403.49115 l 4.54611,1.60878921 c 2.50035,0.8848341 5.6604,2.2976254 7.02233,3.1395361 6.07156,3.7532907 11.27953,10.5063584 13.46885,17.4647684 l 1.29647,4.120662 V 215.05901 403.49166 l -1.29647,4.12066 c -3.16883,10.07165 -10.69266,17.35565 -21.81872,21.1232 -3.11084,1.05341 -9.43722,1.09226 -189.01784,1.16058 -102.1896,0.0389 -187.379305,-0.11441 -189.310447,-0.34062 z M 130.49789,263.04496 v -97.4349 H 97.72699 64.956094 v 97.4349 97.4349 h 32.770896 32.7709 z M 231.7452,302.1067 c 0.009,-63.43994 -0.0523,-62.14398 3.27566,-68.77158 7.9193,-15.77101 22.92129,-23.44607 39.14229,-20.02531 12.4929,2.63457 20.28933,11.4641 23.76365,26.91256 1.30651,5.80938 1.31771,6.2681 1.53819,63.05472 l 0.2221,57.20277 h 32.77284 32.77284 l -0.23075,-62.17693 c -0.25014,-67.40069 -0.22737,-66.88929 -3.60004,-80.88451 -7.21638,-29.94512 -25.88059,-48.77631 -54.33119,-54.81726 -8.74619,-1.85708 -25.11206,-1.86492 -33.66513,-0.0161 -16.16986,3.49524 -30.02052,12.70538 -39.37537,26.18307 l -2.00115,2.88308 -0.15749,-13.02058 -0.15749,-13.02058 h -32.7597 -32.7597 v 97.4349 97.4349 h 32.77089 32.7709 l 0.009,-58.37316 z M 105.39481,138.95556 c 1.64245,-0.17642 5.03852,-1.06973 7.54682,-1.98515 13.77834,-5.02847 21.66065,-16.17504 21.75027,-30.75759 0.10442,-16.990404 -10.37517,-29.839697 -27.16502,-33.307735 -18.075788,-3.733653 -36.058823,3.759869 -42.716792,17.800074 -2.517706,5.309301 -3.367959,9.133728 -3.356512,15.097561 0.03464,18.04037 12.553541,31.50657 31.095864,33.44883 4.160383,0.43579 6.543582,0.38087 12.84537,-0.29599 z"
   style="fill:#6c63ff;stroke-width:0.585195" /></svg>
