<svg id="Layer_1" data-name="Layer 1" xmlns="http://www.w3.org/2000/svg" xmlns:xlink="http://www.w3.org/1999/xlink" viewBox="0 0 512 512"><defs><clipPath id="clip-path"><circle cx="255.88" cy="255.18" r="253.5" style="fill:none"/></clipPath></defs><g style="clip-path:url(#clip-path)"><path d="M234,509.34V43.24S102.65,64,102.65,174.17c0,94.84,92.83,106,121.49,106.75a3.78,3.78,0,0,1,2.93,6l-113.6,146" style="fill:none;stroke:#020202;stroke-miterlimit:10;stroke-width:16.94896547780107px"/><path d="M277.75,509.34V43.24S409.1,64,409.1,174.17" style="fill:none;stroke:#020202;stroke-miterlimit:10;stroke-width:16.94896547780107px"/><line x1="278.47" y1="282.23" x2="403.89" y2="282.23" style="fill:none;stroke:#020202;stroke-miterlimit:10;stroke-width:16.94896547780107px"/><path d="M272,498.74c127.24-8.42,227.94-115.5,227.94-243.5,0-133.88-110.16-244-244-244s-244,110.16-244,244C11.83,383.64,113.17,491,241,498.81" style="fill:none;stroke:#000;stroke-miterlimit:10;stroke-width:18.71804338504673px"/></g></svg>